# xmcd
#
# Track frame offsets:
#	187
#	14500
#	27740
#	42327
#	56515
#	68695
#	81490
#	97162
#	108602
#	122375
#	134687
#	149940
#	164167
#	180040
#	192722
#
# Disc length: 2745 seconds
# Revision: 1
# Processed by: cddbd v1.5.2PL0 Copyright (c) Steve Scherf et al.
# Submitted via: dBpowerAMP V12.0
#
DISCID=eb0ab70f
DTITLE=暁テル子 - 昭和を飾った名歌手たち (13) ミネソタの卵売り
DYEAR=1999
DGENRE=歌謡曲
TTITLE0=南の恋唄
TTITLE1=これがブギウギ
TTITLE2=鬼のブギウギ
TTITLE3=東京カチンカ娘
TTITLE4=リオのポポ売り
TTITLE5=チューインガムは恋の味
TTITLE6=パラダイス夢の国
TTITLE7=ミネソタの卵売り
TTITLE8=東京シューシャインボーイ
TTITLE9=りべらる銀座
TTITLE10=桃太郎ブギ
TTITLE11=泣き笑いＡＢＣ
TTITLE12=乾杯!サラリーマン諸君
TTITLE13=青空パラダイス
TTITLE14=フラ天国
EXTD=
EXTT0=
EXTT1=
EXTT2=
EXTT3=
EXTT4=
EXTT5=
EXTT6=
EXTT7=
EXTT8=
EXTT9=
EXTT10=
EXTT11=
EXTT12=
EXTT13=
EXTT14=
PLAYORDER=
